<svg id="Capa_1" enable-background="new 0 0 511.668 511.668" height="512" viewBox="0 0 511.668 511.668" width="512" xmlns="http://www.w3.org/2000/svg"><g id="XMLID_827_"><path id="XMLID_837_" d="m308.352 411.695h101.294v-101.293h-101.294zm32.74-65.646h30.985v30h-30.985z"/><path id="XMLID_845_" d="m202.552 157.86v-30-25.457h-101.293v101.293h101.293zm-35.154 7.703h-30.985v-30h30.985z"/><path id="XMLID_846_" d="m409.167 0 102 .001v-.001z"/><path id="XMLID_864_" d="m481.167 102.001v-72l-72-.001v-30h-306.666v30h-72v72h-30v307.668h30v72h72v30h408.666l-102-.001v-30l72 .001v-72h30v-307.667zm-187.815 72.774h30.985v30h-30.985zm-5.829-72.372v-30h30.985v30zm-207.723 207.999v-30h87.105v30zm6.459 33.48h30.985v30h-30.985zm353.387 97.813h-161.294v-131.293h-45.799v63.479h-48.177v37.813h48.177v30h-145.802v-30h67.624v-67.813h48.177v-110.185h-131.293v-161.293h161.293v55.457h35.15v30h-35.15v122.542h60.799.493v-45.812h30v45.812h85.801v-42.716h-37.568v-30h37.568v-40.724h-53.062v-30h83.062v304.733zm0-339.292h-82.568v-30h82.568z"/></g></svg>